<!-- <svg xmlns="http://www.w3.org/2000/svg" height="24px" viewBox="0 -960 960 960" width="24px" fill="#5f6368"><path d="M480-100q-74.92 0-127.46-52.54Q300-205.08 300-280q0-45.69 21.19-84.69 21.2-39 58.81-64.54V-760q0-41.92 29.04-70.96Q438.08-860 480-860q41.92 0 70.96 29.04Q580-801.92 580-760v330.77q37.61 25.54 58.81 64.54Q660-325.69 660-280q0 74.92-52.54 127.46Q554.92-100 480-100Zm-40-412.31h80v-50h-40v-35.38h40v-84.62h-40v-35.38h40V-760q0-17-11.5-28.5T480-800q-17 0-28.5 11.5T440-760v247.69Z"/></svg> -->

<svg xmlns="http://www.w3.org/2000/svg" height="24px" viewBox="0 -960 960 960" width="24px" fill="#5f6368"><path d="M480-90q-80.5 0-136.75-56.25T287-282.97q0-46.53 20.75-87.53T366-439v-317q0-47.5 33.25-80.75T480-870q47.5 0 80.75 33.25T594-756v317q37.5 27.5 58.25 68.5T673-282.97q0 80.47-56.25 136.72T480-90Zm-39-428h78v-41h-39v-39.25h39v-78.5h-39V-716h39v-40q0-16.58-11.2-27.79Q496.61-795 480.05-795q-16.55 0-27.8 11.21T441-756v238Z"/></svg>
